<mxfile host="app.diagrams.net" modified="2021-04-21T11:24:11.047Z" agent="5.0 (Windows)" etag="OeNtxv0EJVh_ma0qffh0" version="14.6.3" type="github">
  <diagram id="1N5ksvwPrex-zLJyI5F_" name="Page-1">
    <mxGraphModel dx="1422" dy="763" grid="1" gridSize="10" guides="1" tooltips="1" connect="1" arrows="1" fold="1" page="1" pageScale="1" pageWidth="827" pageHeight="1169" math="0" shadow="0">
      <root>
        <mxCell id="0" />
        <mxCell id="1" parent="0" />
        <mxCell id="BRy1IVWSXkcKdXA6C2Qc-1" value="" style="rounded=1;whiteSpace=wrap;html=1;align=center;" vertex="1" parent="1">
          <mxGeometry x="60" y="240" width="290" height="280" as="geometry" />
        </mxCell>
        <mxCell id="BRy1IVWSXkcKdXA6C2Qc-2" value="Klient" style="text;html=1;strokeColor=none;fillColor=none;align=center;verticalAlign=middle;whiteSpace=wrap;rounded=0;" vertex="1" parent="1">
          <mxGeometry x="185" y="250" width="40" height="20" as="geometry" />
        </mxCell>
        <mxCell id="BRy1IVWSXkcKdXA6C2Qc-3" value="" style="rounded=1;whiteSpace=wrap;html=1;align=center;" vertex="1" parent="1">
          <mxGeometry x="500" y="240" width="290" height="280" as="geometry" />
        </mxCell>
        <mxCell id="BRy1IVWSXkcKdXA6C2Qc-4" value="&lt;div&gt;Serwer&lt;/div&gt;" style="text;html=1;strokeColor=none;fillColor=none;align=center;verticalAlign=middle;whiteSpace=wrap;rounded=0;" vertex="1" parent="1">
          <mxGeometry x="625" y="250" width="40" height="20" as="geometry" />
        </mxCell>
      </root>
    </mxGraphModel>
  </diagram>
</mxfile>
